<svg width="100" height="100" viewBox="0 0 116 114" fill="none" xmlns="http://www.w3.org/2000/svg">
<path fill-rule="evenodd" clip-rule="evenodd" d="M57.422 9.91309C31.1281 9.91309 9.87207 31.4945 9.87207 58.1937C9.87207 79.5358 23.4916 97.6014 42.3854 103.995C44.7476 104.476 45.6129 102.957 45.6129 101.678C45.6129 100.559 45.535 96.7224 45.535 92.725C32.3078 95.6031 29.5533 86.9696 29.5533 86.9696C27.4276 81.3741 24.278 79.936 24.278 79.936C19.9487 76.9784 24.5933 76.9784 24.5933 76.9784C29.3956 77.2982 31.9155 81.9342 31.9155 81.9342C36.166 89.2876 43.0151 87.2099 45.7706 85.9307C46.1638 82.8132 47.4242 80.6551 48.7625 79.4563C38.2128 78.337 27.1132 74.1806 27.1132 55.6353C27.1132 50.3596 29.0015 46.0433 31.9934 42.6865C31.5213 41.4877 29.8677 36.5308 32.4664 29.8965C32.4664 29.8965 36.4813 28.6173 45.534 34.8524C49.4098 33.7956 53.4069 33.2579 57.422 33.2534C61.4369 33.2534 65.5297 33.8135 69.309 34.8524C78.3627 28.6173 82.3776 29.8965 82.3776 29.8965C84.9763 36.5308 83.3217 41.4877 82.8497 42.6865C85.9205 46.0433 87.7308 50.3596 87.7308 55.6353C87.7308 74.1806 76.6312 78.2566 66.0027 79.4563C67.7352 80.9749 69.2302 83.8521 69.2302 88.4087C69.2302 94.8831 69.1523 100.079 69.1523 101.677C69.1523 102.957 70.0186 104.476 72.3798 103.996C91.2736 97.6004 104.893 79.5358 104.893 58.1937C104.971 31.4945 83.6371 9.91309 57.422 9.91309Z" fill="white"/>
</svg>
